<?xml version="1.0" ?>
<!DOCTYPE svg  PUBLIC '-//W3C//DTD SVG 1.1//EN'  'http://www.w3.org/Graphics/SVG/1.1/DTD/svg11.dtd'>
<svg enable-background="new 0 0 26 26" id="Слой_1" version="1.1" viewBox="0 0 26 26" width="1.4em" xml:space="preserve" xmlns="http://www.w3.org/2000/svg" xmlns:xlink="http://www.w3.org/1999/xlink"><path d="M24.4970703,19.2363281c-0.4033203-0.6582031-1.0292969-1.4248047-1.7646484-2.1591797  c-0.5322266-0.5322266-2.359375-2.2675781-3.5341797-2.2675781c-0.3769531,0-0.6162109,0.1611328-0.75,0.2949219  l-1.5644531,1.5634766c-0.0263672,0.0263672-0.1103516,0.0566406-0.2617188,0.0566406  c-0.8681641,0-2.7089844-0.9609375-4.5478516-2.7988281c-2.4521484-2.453125-3.0419922-4.5097656-2.7421875-4.8095703  l1.5625-1.5634766c0.1347656-0.1347656,0.2958984-0.3740234,0.2958984-0.75  c0.0009766-1.1757813-1.7353516-3.0029297-2.2675781-3.5351563C8.3916016,2.7353516,6.5654297,1,5.3886719,1  c-0.3759766,0-0.6152344,0.1601563-0.75,0.2949219L1.5107422,4.4228516  C0.5869141,5.3457031,0.9238281,7.1513672,2.5126953,9.7890625C3.8916016,12.078125,6.0742188,14.7617188,8.65625,17.34375  C13.2363281,21.9238281,17.8740234,25.0009766,20.1962891,25c0.578125,0,1.0419922-0.171875,1.3808594-0.5107422  l3.1279297-3.1279297C25.3818359,20.6845703,24.7158203,19.5947266,24.4970703,19.2363281z M20.5166016,23.4287109  C20.4814453,23.4628906,20.3798828,23.5,20.1962891,23.5c-1.5810547,0-5.7910156-2.5292969-10.4794922-7.2167969  c-2.4990234-2.4990234-4.6005859-5.0800781-5.9189453-7.2685547C2.3125,6.5498047,2.4521484,5.6025391,2.5712891,5.4833984  L5.515625,2.5390625C5.8994141,2.6875,6.7890625,3.2539063,7.8623047,4.328125s1.640625,1.9628906,1.7890625,2.3466797  L8.2714844,8.0556641c-1.4384766,1.4384766,0.4130859,4.6005859,2.7421875,6.9306641  c1.9980469,1.9980469,4.1474609,3.2382813,5.6083984,3.2382813c0.6826172,0,1.0957031-0.2695313,1.3222656-0.4960938  l1.3808594-1.3798828c0.3837891,0.1484375,1.2724609,0.7158203,2.3466797,1.7890625  c1.0732422,1.0732422,1.640625,1.9628906,1.7890625,2.3466797L20.5166016,23.4287109z" fill="#1D1D1B"/></svg>