<?xml version="1.0" encoding="iso-8859-1"?>
<!-- Generator: Adobe Illustrator 19.0.0, SVG Export Plug-In . SVG Version: 6.00 Build 0)  -->
<svg version="1.1" id="Capa_1" xmlns="http://www.w3.org/2000/svg" xmlns:xlink="http://www.w3.org/1999/xlink" x="0px" y="0px"
	fill="#ffff" width="1.4em"  viewBox="0 0 512 512" style="enable-background:new 0 0 512 512;" xml:space="preserve">
<g>
	<g>
		<g>
			<path d="M301,392h-90c-11.046,0-20,8.954-20,20c0,11.046,8.954,20,20,20h90c11.046,0,20-8.954,20-20
				C321,400.954,312.046,392,301,392z"/>
			<circle cx="421" cy="259" r="20"/>
			<path d="M492,312c11.046,0,20-8.954,20-20v-43c0-44.112-35.888-80-80-80h-31V20c0-11.046-8.954-20-20-20H131
				c-11.046,0-20,8.954-20,20v149H80c-44.112,0-80,35.888-80,80v143c0,44.112,35.888,80,80,80h31v20c0,11.046,8.954,20,20,20h250
				c11.046,0,20-8.954,20-20v-20h31c44.112,0,80-35.888,80-80c0-11.046-8.954-20-20-20c-11.046,0-20,8.954-20,20
				c0,22.056-17.944,40-40,40h-31v-83h11c11.046,0,20-8.954,20-20c0-11.046-8.954-20-20-20H100c-11.046,0-20,8.954-20,20
				c0,11.046,8.954,20,20,20h11v83H80c-22.056,0-40-17.944-40-40V249c0-22.056,17.944-40,40-40h352c22.056,0,40,17.944,40,40v43
				C472,303.046,480.954,312,492,312z M151,349h210v123H151V349z M361,169H151V40h210V169z"/>
		</g>
	</g>
</g>
<g>
</g>
<g>
</g>
<g>
</g>
<g>
</g>
<g>
</g>
<g>
</g>
<g>
</g>
<g>
</g>
<g>
</g>
<g>
</g>
<g>
</g>
<g>
</g>
<g>
</g>
<g>
</g>
<g>
</g>
</svg>
